<?xml version="1.0" encoding="UTF-8"?>
<svg xmlns="http://www.w3.org/2000/svg" viewBox="0 0 280 130" role="img" aria-label="Incline push-up demonstration">
  <rect width="280" height="130" fill="#E9E4D6"/>
  <text x="66" y="14" text-anchor="middle" font-family="IBM Plex Mono, Menlo, monospace" font-size="8" letter-spacing="1.2" fill="#6C7062">START</text>
  <text x="214" y="14" text-anchor="middle" font-family="IBM Plex Mono, Menlo, monospace" font-size="8" letter-spacing="1.2" fill="#6C7062">FINISH</text>
  <g transform="translate(6,18)">
    <rect x="0" y="0" width="120" height="84" fill="#DFD9C6" stroke="#181B16" stroke-width="1.5"/>
    <line x1="4" y1="75" x2="116" y2="75" stroke="#181B16" stroke-width="1.6" opacity=".45"/><line x1="10" y1="75" x2="6" y2="80" stroke="#181B16" stroke-width="1" opacity=".25"/><line x1="26" y1="75" x2="22" y2="80" stroke="#181B16" stroke-width="1" opacity=".25"/><line x1="42" y1="75" x2="38" y2="80" stroke="#181B16" stroke-width="1" opacity=".25"/><line x1="58" y1="75" x2="54" y2="80" stroke="#181B16" stroke-width="1" opacity=".25"/><line x1="74" y1="75" x2="70" y2="80" stroke="#181B16" stroke-width="1" opacity=".25"/><line x1="90" y1="75" x2="86" y2="80" stroke="#181B16" stroke-width="1" opacity=".25"/><line x1="106" y1="75" x2="102" y2="80" stroke="#181B16" stroke-width="1" opacity=".25"/><rect x="54" y="68" width="54" height="8" fill="none" stroke="#181B16" stroke-width="1.6" opacity=".45"/>
    <line x1="65.2" y1="48.7" x2="66.7" y2="59.6" stroke="#181B16" stroke-width="3" stroke-linecap="round" opacity="0.32"/><line x1="66.7" y1="59.6" x2="68.1" y2="69.5" stroke="#181B16" stroke-width="3" stroke-linecap="round" opacity="0.32"/><line x1="44.0" y1="60.0" x2="30.8" y2="67.0" stroke="#181B16" stroke-width="3.2" stroke-linecap="round" opacity="0.32"/><line x1="30.8" y1="67.0" x2="17.5" y2="74.1" stroke="#181B16" stroke-width="3.2" stroke-linecap="round" opacity="0.32"/><line x1="17.5" y1="74.1" x2="20.0" y2="79.5" stroke="#181B16" stroke-width="2.4" stroke-linecap="round" opacity="0.32"/><line x1="44.0" y1="60.0" x2="65.2" y2="48.7" stroke="#181B16" stroke-width="4.6" stroke-linecap="round" opacity="1"/><circle cx="73.1" cy="44.5" r="5.5" fill="none" stroke="#181B16" stroke-width="3"/><line x1="65.2" y1="48.7" x2="66.7" y2="59.6" stroke="#181B16" stroke-width="3.4" stroke-linecap="round" opacity="1"/><line x1="66.7" y1="59.6" x2="68.1" y2="69.5" stroke="#181B16" stroke-width="3.4" stroke-linecap="round" opacity="1"/><line x1="44.0" y1="60.0" x2="30.8" y2="67.0" stroke="#181B16" stroke-width="3.8" stroke-linecap="round" opacity="1"/><line x1="30.8" y1="67.0" x2="17.5" y2="74.1" stroke="#181B16" stroke-width="3.8" stroke-linecap="round" opacity="1"/><line x1="17.5" y1="74.1" x2="20.0" y2="79.5" stroke="#181B16" stroke-width="2.6" stroke-linecap="round" opacity="1"/>
  </g>
  <g transform="translate(154,18)">
    <rect x="0" y="0" width="120" height="84" fill="#DFD9C6" stroke="#181B16" stroke-width="1.5"/>
    <line x1="4" y1="75" x2="116" y2="75" stroke="#181B16" stroke-width="1.6" opacity=".45"/><line x1="10" y1="75" x2="6" y2="80" stroke="#181B16" stroke-width="1" opacity=".25"/><line x1="26" y1="75" x2="22" y2="80" stroke="#181B16" stroke-width="1" opacity=".25"/><line x1="42" y1="75" x2="38" y2="80" stroke="#181B16" stroke-width="1" opacity=".25"/><line x1="58" y1="75" x2="54" y2="80" stroke="#181B16" stroke-width="1" opacity=".25"/><line x1="74" y1="75" x2="70" y2="80" stroke="#181B16" stroke-width="1" opacity=".25"/><line x1="90" y1="75" x2="86" y2="80" stroke="#181B16" stroke-width="1" opacity=".25"/><line x1="106" y1="75" x2="102" y2="80" stroke="#181B16" stroke-width="1" opacity=".25"/><rect x="54" y="68" width="54" height="8" fill="none" stroke="#181B16" stroke-width="1.6" opacity=".45"/>
    <line x1="69.2" y1="51.7" x2="73.3" y2="61.9" stroke="#181B16" stroke-width="3" stroke-linecap="round" opacity="0.32"/><line x1="73.3" y1="61.9" x2="69.1" y2="71.0" stroke="#181B16" stroke-width="3" stroke-linecap="round" opacity="0.32"/><line x1="48.0" y1="63.0" x2="34.8" y2="70.0" stroke="#181B16" stroke-width="3.2" stroke-linecap="round" opacity="0.32"/><line x1="34.8" y1="70.0" x2="21.5" y2="77.1" stroke="#181B16" stroke-width="3.2" stroke-linecap="round" opacity="0.32"/><line x1="21.5" y1="77.1" x2="24.0" y2="82.5" stroke="#181B16" stroke-width="2.4" stroke-linecap="round" opacity="0.32"/><line x1="48.0" y1="63.0" x2="69.2" y2="51.7" stroke="#181B16" stroke-width="4.6" stroke-linecap="round" opacity="1"/><circle cx="77.1" cy="47.5" r="5.5" fill="none" stroke="#181B16" stroke-width="3"/><line x1="69.2" y1="51.7" x2="73.3" y2="61.9" stroke="#181B16" stroke-width="3.4" stroke-linecap="round" opacity="1"/><line x1="73.3" y1="61.9" x2="69.1" y2="71.0" stroke="#181B16" stroke-width="3.4" stroke-linecap="round" opacity="1"/><line x1="48.0" y1="63.0" x2="34.8" y2="70.0" stroke="#181B16" stroke-width="3.8" stroke-linecap="round" opacity="1"/><line x1="34.8" y1="70.0" x2="21.5" y2="77.1" stroke="#181B16" stroke-width="3.8" stroke-linecap="round" opacity="1"/><line x1="21.5" y1="77.1" x2="24.0" y2="82.5" stroke="#181B16" stroke-width="2.6" stroke-linecap="round" opacity="1"/>
  </g>
  <path d="M134 58 L146 58" stroke="#47573A" stroke-width="2" stroke-linecap="round"/>
  <path d="M142 54 L148 58 L142 62" fill="none" stroke="#47573A" stroke-width="2" stroke-linecap="round" stroke-linejoin="round"/>
  <text x="140" y="122" text-anchor="middle" font-family="Barlow Condensed, Arial Narrow, sans-serif" font-size="11" font-weight="700" letter-spacing="0.5" fill="#181B16">INCLINE PUSH-UP</text>
</svg>