<?xml version="1.0" encoding="UTF-8"?>
<svg xmlns="http://www.w3.org/2000/svg" viewBox="0 0 280 130" role="img" aria-label="Pull-up demonstration">
  <rect width="280" height="130" fill="#E9E4D6"/>
  <text x="66" y="14" text-anchor="middle" font-family="IBM Plex Mono, Menlo, monospace" font-size="8" letter-spacing="1.2" fill="#6C7062">START</text>
  <text x="214" y="14" text-anchor="middle" font-family="IBM Plex Mono, Menlo, monospace" font-size="8" letter-spacing="1.2" fill="#6C7062">FINISH</text>
  <g transform="translate(6,18)">
    <rect x="0" y="0" width="120" height="84" fill="#DFD9C6" stroke="#181B16" stroke-width="1.5"/>
    <line x1="24" y1="10" x2="106" y2="10" stroke="#181B16" stroke-width="2.4" opacity=".5"/><line x1="30" y1="10" x2="30" y2="3" stroke="#181B16" stroke-width="1.6" opacity=".35"/><line x1="100" y1="10" x2="100" y2="3" stroke="#181B16" stroke-width="1.6" opacity=".35"/>
    <line x1="64.0" y1="31.0" x2="64.4" y2="20.0" stroke="#181B16" stroke-width="3" stroke-linecap="round" opacity="0.32"/><line x1="64.4" y1="20.0" x2="64.7" y2="10.0" stroke="#181B16" stroke-width="3" stroke-linecap="round" opacity="0.32"/><line x1="64.0" y1="55.0" x2="61.9" y2="69.9" stroke="#181B16" stroke-width="3.2" stroke-linecap="round" opacity="0.32"/><line x1="61.9" y1="69.9" x2="52.3" y2="81.3" stroke="#181B16" stroke-width="3.2" stroke-linecap="round" opacity="0.32"/><line x1="52.3" y1="81.3" x2="58.2" y2="80.3" stroke="#181B16" stroke-width="2.4" stroke-linecap="round" opacity="0.32"/><line x1="64.0" y1="55.0" x2="64.0" y2="31.0" stroke="#181B16" stroke-width="4.6" stroke-linecap="round" opacity="1"/><circle cx="64.0" cy="22.0" r="5.5" fill="none" stroke="#181B16" stroke-width="3"/><line x1="64.0" y1="31.0" x2="64.4" y2="20.0" stroke="#181B16" stroke-width="3.4" stroke-linecap="round" opacity="1"/><line x1="64.4" y1="20.0" x2="64.7" y2="10.0" stroke="#181B16" stroke-width="3.4" stroke-linecap="round" opacity="1"/><line x1="64.0" y1="55.0" x2="61.9" y2="69.9" stroke="#181B16" stroke-width="3.8" stroke-linecap="round" opacity="1"/><line x1="61.9" y1="69.9" x2="52.3" y2="81.3" stroke="#181B16" stroke-width="3.8" stroke-linecap="round" opacity="1"/><line x1="52.3" y1="81.3" x2="58.2" y2="80.3" stroke="#181B16" stroke-width="2.6" stroke-linecap="round" opacity="1"/>
  </g>
  <g transform="translate(154,18)">
    <rect x="0" y="0" width="120" height="84" fill="#DFD9C6" stroke="#181B16" stroke-width="1.5"/>
    <line x1="24" y1="10" x2="106" y2="10" stroke="#181B16" stroke-width="2.4" opacity=".5"/><line x1="30" y1="10" x2="30" y2="3" stroke="#181B16" stroke-width="1.6" opacity=".35"/><line x1="100" y1="10" x2="100" y2="3" stroke="#181B16" stroke-width="1.6" opacity=".35"/>
    <line x1="64.0" y1="18.0" x2="53.9" y2="13.7" stroke="#181B16" stroke-width="3" stroke-linecap="round" opacity="0.32"/><line x1="53.9" y1="13.7" x2="63.1" y2="9.8" stroke="#181B16" stroke-width="3" stroke-linecap="round" opacity="0.32"/><line x1="64.0" y1="42.0" x2="61.9" y2="56.9" stroke="#181B16" stroke-width="3.2" stroke-linecap="round" opacity="0.32"/><line x1="61.9" y1="56.9" x2="52.3" y2="68.3" stroke="#181B16" stroke-width="3.2" stroke-linecap="round" opacity="0.32"/><line x1="52.3" y1="68.3" x2="58.2" y2="67.3" stroke="#181B16" stroke-width="2.4" stroke-linecap="round" opacity="0.32"/><line x1="64.0" y1="42.0" x2="64.0" y2="18.0" stroke="#181B16" stroke-width="4.6" stroke-linecap="round" opacity="1"/><circle cx="64.0" cy="9.0" r="5.5" fill="none" stroke="#181B16" stroke-width="3"/><line x1="64.0" y1="18.0" x2="74.1" y2="13.7" stroke="#181B16" stroke-width="3.4" stroke-linecap="round" opacity="1"/><line x1="74.1" y1="13.7" x2="64.9" y2="9.8" stroke="#181B16" stroke-width="3.4" stroke-linecap="round" opacity="1"/><line x1="64.0" y1="42.0" x2="61.9" y2="56.9" stroke="#181B16" stroke-width="3.8" stroke-linecap="round" opacity="1"/><line x1="61.9" y1="56.9" x2="52.3" y2="68.3" stroke="#181B16" stroke-width="3.8" stroke-linecap="round" opacity="1"/><line x1="52.3" y1="68.3" x2="58.2" y2="67.3" stroke="#181B16" stroke-width="2.6" stroke-linecap="round" opacity="1"/>
  </g>
  <path d="M134 58 L146 58" stroke="#47573A" stroke-width="2" stroke-linecap="round"/>
  <path d="M142 54 L148 58 L142 62" fill="none" stroke="#47573A" stroke-width="2" stroke-linecap="round" stroke-linejoin="round"/>
  <text x="140" y="122" text-anchor="middle" font-family="Barlow Condensed, Arial Narrow, sans-serif" font-size="11" font-weight="700" letter-spacing="0.5" fill="#181B16">PULL-UP</text>
</svg>