<?xml version="1.0" encoding="UTF-8"?>
<svg xmlns="http://www.w3.org/2000/svg" viewBox="0 0 280 130" role="img" aria-label="Sit-to-stand demonstration">
  <rect width="280" height="130" fill="#E9E4D6"/>
  <text x="66" y="14" text-anchor="middle" font-family="IBM Plex Mono, Menlo, monospace" font-size="8" letter-spacing="1.2" fill="#6C7062">START</text>
  <text x="214" y="14" text-anchor="middle" font-family="IBM Plex Mono, Menlo, monospace" font-size="8" letter-spacing="1.2" fill="#6C7062">FINISH</text>
  <g transform="translate(6,18)">
    <rect x="0" y="0" width="120" height="84" fill="#DFD9C6" stroke="#181B16" stroke-width="1.5"/>
    <line x1="4" y1="75" x2="116" y2="75" stroke="#181B16" stroke-width="1.6" opacity=".45"/><line x1="10" y1="75" x2="6" y2="80" stroke="#181B16" stroke-width="1" opacity=".25"/><line x1="26" y1="75" x2="22" y2="80" stroke="#181B16" stroke-width="1" opacity=".25"/><line x1="42" y1="75" x2="38" y2="80" stroke="#181B16" stroke-width="1" opacity=".25"/><line x1="58" y1="75" x2="54" y2="80" stroke="#181B16" stroke-width="1" opacity=".25"/><line x1="74" y1="75" x2="70" y2="80" stroke="#181B16" stroke-width="1" opacity=".25"/><line x1="90" y1="75" x2="86" y2="80" stroke="#181B16" stroke-width="1" opacity=".25"/><line x1="106" y1="75" x2="102" y2="80" stroke="#181B16" stroke-width="1" opacity=".25"/><line x1="70" y1="57" x2="110" y2="57" stroke="#181B16" stroke-width="1.6" opacity=".45"/><line x1="106" y1="57" x2="106" y2="28" stroke="#181B16" stroke-width="1.6" opacity=".45"/><line x1="74" y1="57" x2="74" y2="75" stroke="#181B16" stroke-width="1.4" opacity=".35"/><line x1="106" y1="57" x2="106" y2="75" stroke="#181B16" stroke-width="1.4" opacity=".35"/>
    <line x1="79.7" y1="33.1" x2="68.7" y2="32.1" stroke="#181B16" stroke-width="3" stroke-linecap="round" opacity="0.32"/><line x1="68.7" y1="32.1" x2="58.8" y2="31.2" stroke="#181B16" stroke-width="3" stroke-linecap="round" opacity="0.32"/><line x1="78.0" y1="57.0" x2="63.1" y2="54.9" stroke="#181B16" stroke-width="3.2" stroke-linecap="round" opacity="0.32"/><line x1="63.1" y1="54.9" x2="61.1" y2="69.8" stroke="#181B16" stroke-width="3.2" stroke-linecap="round" opacity="0.32"/><line x1="61.1" y1="69.8" x2="55.1" y2="70.3" stroke="#181B16" stroke-width="2.4" stroke-linecap="round" opacity="0.32"/><line x1="78.0" y1="57.0" x2="79.7" y2="33.1" stroke="#181B16" stroke-width="4.6" stroke-linecap="round" opacity="1"/><circle cx="80.3" cy="24.1" r="5.5" fill="none" stroke="#181B16" stroke-width="3"/><line x1="79.7" y1="33.1" x2="68.7" y2="32.1" stroke="#181B16" stroke-width="3.4" stroke-linecap="round" opacity="1"/><line x1="68.7" y1="32.1" x2="58.8" y2="31.2" stroke="#181B16" stroke-width="3.4" stroke-linecap="round" opacity="1"/><line x1="78.0" y1="57.0" x2="63.1" y2="54.9" stroke="#181B16" stroke-width="3.8" stroke-linecap="round" opacity="1"/><line x1="63.1" y1="54.9" x2="61.1" y2="69.8" stroke="#181B16" stroke-width="3.8" stroke-linecap="round" opacity="1"/><line x1="61.1" y1="69.8" x2="55.1" y2="70.3" stroke="#181B16" stroke-width="2.6" stroke-linecap="round" opacity="1"/>
  </g>
  <g transform="translate(154,18)">
    <rect x="0" y="0" width="120" height="84" fill="#DFD9C6" stroke="#181B16" stroke-width="1.5"/>
    <line x1="4" y1="75" x2="116" y2="75" stroke="#181B16" stroke-width="1.6" opacity=".45"/><line x1="10" y1="75" x2="6" y2="80" stroke="#181B16" stroke-width="1" opacity=".25"/><line x1="26" y1="75" x2="22" y2="80" stroke="#181B16" stroke-width="1" opacity=".25"/><line x1="42" y1="75" x2="38" y2="80" stroke="#181B16" stroke-width="1" opacity=".25"/><line x1="58" y1="75" x2="54" y2="80" stroke="#181B16" stroke-width="1" opacity=".25"/><line x1="74" y1="75" x2="70" y2="80" stroke="#181B16" stroke-width="1" opacity=".25"/><line x1="90" y1="75" x2="86" y2="80" stroke="#181B16" stroke-width="1" opacity=".25"/><line x1="106" y1="75" x2="102" y2="80" stroke="#181B16" stroke-width="1" opacity=".25"/><line x1="70" y1="57" x2="110" y2="57" stroke="#181B16" stroke-width="1.6" opacity=".45"/><line x1="106" y1="57" x2="106" y2="28" stroke="#181B16" stroke-width="1.6" opacity=".45"/><line x1="74" y1="57" x2="74" y2="75" stroke="#181B16" stroke-width="1.4" opacity=".35"/><line x1="106" y1="57" x2="106" y2="75" stroke="#181B16" stroke-width="1.4" opacity=".35"/>
    <line x1="68.3" y1="20.1" x2="57.3" y2="19.7" stroke="#181B16" stroke-width="3" stroke-linecap="round" opacity="0.32"/><line x1="57.3" y1="19.7" x2="47.3" y2="19.3" stroke="#181B16" stroke-width="3" stroke-linecap="round" opacity="0.32"/><line x1="70.0" y1="44.0" x2="69.0" y2="59.0" stroke="#181B16" stroke-width="3.2" stroke-linecap="round" opacity="0.32"/><line x1="69.0" y1="59.0" x2="67.9" y2="73.9" stroke="#181B16" stroke-width="3.2" stroke-linecap="round" opacity="0.32"/><line x1="67.9" y1="73.9" x2="61.9" y2="74.4" stroke="#181B16" stroke-width="2.4" stroke-linecap="round" opacity="0.32"/><line x1="70.0" y1="44.0" x2="68.3" y2="20.1" stroke="#181B16" stroke-width="4.6" stroke-linecap="round" opacity="1"/><circle cx="67.7" cy="11.1" r="5.5" fill="none" stroke="#181B16" stroke-width="3"/><line x1="68.3" y1="20.1" x2="57.3" y2="19.7" stroke="#181B16" stroke-width="3.4" stroke-linecap="round" opacity="1"/><line x1="57.3" y1="19.7" x2="47.3" y2="19.3" stroke="#181B16" stroke-width="3.4" stroke-linecap="round" opacity="1"/><line x1="70.0" y1="44.0" x2="69.0" y2="59.0" stroke="#181B16" stroke-width="3.8" stroke-linecap="round" opacity="1"/><line x1="69.0" y1="59.0" x2="67.9" y2="73.9" stroke="#181B16" stroke-width="3.8" stroke-linecap="round" opacity="1"/><line x1="67.9" y1="73.9" x2="61.9" y2="74.4" stroke="#181B16" stroke-width="2.6" stroke-linecap="round" opacity="1"/>
  </g>
  <path d="M134 58 L146 58" stroke="#47573A" stroke-width="2" stroke-linecap="round"/>
  <path d="M142 54 L148 58 L142 62" fill="none" stroke="#47573A" stroke-width="2" stroke-linecap="round" stroke-linejoin="round"/>
  <text x="140" y="122" text-anchor="middle" font-family="Barlow Condensed, Arial Narrow, sans-serif" font-size="11" font-weight="700" letter-spacing="0.5" fill="#181B16">SIT-TO-STAND</text>
</svg>